name rise30.3154peak39.0474fall46.5389.mot
datacolumns 19
datarows 18
range 14.20161900000000 14.23661500000000
endheader
time	ground_force1_vx	ground_force1_vy	ground_force1_vz	ground_force1_px	ground_force1_py	ground_force1_pz	ground_force2_vx	ground_force2_vy	ground_force2_vz	ground_force2_px	ground_force2_py	ground_force2_pz	ground_torque1_x	ground_torque1_y	ground_torque1_z	ground_torque2_x	ground_torque2_y	ground_torque2_z	
14.20161900000000	9.77029100000000	689.61166100000003	40.84937500000000	0.26120200000000	0.00000000000000	0.10691100000000	0.00000000000000	0.00000000000000	0.00000000000000	0.00000000000000	0.00000000000000	0.00000000000000	0.00000000000000	17.71649200000000	0.00000000000000	0.00000000000000	0.00000000000000	0.00000000000000	
14.20328100000000	9.31129900000000	689.70437300000003	40.93737800000000	0.25989700000000	0.00000000000000	0.10697000000000	0.00000000000000	0.00000000000000	0.00000000000000	0.00000000000000	0.00000000000000	0.00000000000000	0.00000000000000	17.80381300000000	0.00000000000000	0.00000000000000	0.00000000000000	0.00000000000000	
14.20495400000000	8.83934000000000	689.86847999999998	41.03350500000000	0.25862400000000	0.00000000000000	0.10702800000000	0.00000000000000	0.00000000000000	0.00000000000000	0.00000000000000	0.00000000000000	0.00000000000000	0.00000000000000	17.90016200000000	0.00000000000000	0.00000000000000	0.00000000000000	0.00000000000000	
14.20661200000000	8.35417000000000	690.10402699999997	41.13744700000000	0.25738400000000	0.00000000000000	0.10708400000000	0.00000000000000	0.00000000000000	0.00000000000000	0.00000000000000	0.00000000000000	0.00000000000000	0.00000000000000	18.00533000000000	0.00000000000000	0.00000000000000	0.00000000000000	0.00000000000000	
14.20828300000000	7.85558000000000	690.41104600000006	41.24888900000000	0.25617600000000	0.00000000000000	0.10713800000000	0.00000000000000	0.00000000000000	0.00000000000000	0.00000000000000	0.00000000000000	0.00000000000000	0.00000000000000	18.11909200000000	0.00000000000000	0.00000000000000	0.00000000000000	0.00000000000000	
14.21661200000000	7.34340100000000	690.78954699999997	41.36752000000000	0.25500200000000	0.00000000000000	0.10719100000000	0.00000000000000	0.00000000000000	0.00000000000000	0.00000000000000	0.00000000000000	0.00000000000000	0.00000000000000	18.24121100000000	0.00000000000000	0.00000000000000	0.00000000000000	0.00000000000000	
14.21828400000000	6.81749900000000	691.23952599999996	41.49302700000000	0.25386000000000	0.00000000000000	0.10724100000000	0.00000000000000	0.00000000000000	0.00000000000000	0.00000000000000	0.00000000000000	0.00000000000000	0.00000000000000	18.37143700000000	0.00000000000000	0.00000000000000	0.00000000000000	0.00000000000000	
14.21995100000000	6.27777900000000	691.76095999999995	41.62510000000000	0.25275000000000	0.00000000000000	0.10728900000000	0.00000000000000	0.00000000000000	0.00000000000000	0.00000000000000	0.00000000000000	0.00000000000000	0.00000000000000	18.50950800000000	0.00000000000000	0.00000000000000	0.00000000000000	0.00000000000000	
14.22161200000000	5.72418300000000	692.35380799999996	41.76343200000000	0.25167100000000	0.00000000000000	0.10733600000000	0.00000000000000	0.00000000000000	0.00000000000000	0.00000000000000	0.00000000000000	0.00000000000000	0.00000000000000	18.65515000000000	0.00000000000000	0.00000000000000	0.00000000000000	0.00000000000000	
14.22328700000000	5.15669100000000	693.01801200000000	41.90772000000000	0.25062300000000	0.00000000000000	0.10738000000000	0.00000000000000	0.00000000000000	0.00000000000000	0.00000000000000	0.00000000000000	0.00000000000000	0.00000000000000	18.80808000000000	0.00000000000000	0.00000000000000	0.00000000000000	0.00000000000000	
14.22494500000000	4.57531900000000	693.75349100000005	42.05766500000000	0.24960500000000	0.00000000000000	0.10742200000000	0.00000000000000	0.00000000000000	0.00000000000000	0.00000000000000	0.00000000000000	0.00000000000000	0.00000000000000	18.96800500000000	0.00000000000000	0.00000000000000	0.00000000000000	0.00000000000000	
14.22664000000000	3.98012400000000	694.56014500000003	42.21297600000000	0.24861600000000	0.00000000000000	0.10746300000000	0.00000000000000	0.00000000000000	0.00000000000000	0.00000000000000	0.00000000000000	0.00000000000000	0.00000000000000	19.13462200000000	0.00000000000000	0.00000000000000	0.00000000000000	0.00000000000000	
14.22828200000000	3.37119500000000	695.43784400000004	42.37336800000000	0.24765400000000	0.00000000000000	0.10750000000000	0.00000000000000	0.00000000000000	0.00000000000000	0.00000000000000	0.00000000000000	0.00000000000000	0.00000000000000	19.30762200000000	0.00000000000000	0.00000000000000	0.00000000000000	0.00000000000000	
14.22995100000000	2.74866100000000	696.38643300000001	42.53856100000000	0.24671800000000	0.00000000000000	0.10753600000000	0.00000000000000	0.00000000000000	0.00000000000000	0.00000000000000	0.00000000000000	0.00000000000000	0.00000000000000	19.48668900000000	0.00000000000000	0.00000000000000	0.00000000000000	0.00000000000000	
14.23161200000000	2.11268500000000	697.40572499999996	42.70828900000000	0.24580700000000	0.00000000000000	0.10757000000000	0.00000000000000	0.00000000000000	0.00000000000000	0.00000000000000	0.00000000000000	0.00000000000000	0.00000000000000	19.67150000000000	0.00000000000000	0.00000000000000	0.00000000000000	0.00000000000000	
14.23328300000000	1.46346700000000	698.49549800000000	42.88229000000000	0.24491900000000	0.00000000000000	0.10760100000000	0.00000000000000	0.00000000000000	0.00000000000000	0.00000000000000	0.00000000000000	0.00000000000000	0.00000000000000	19.86172600000000	0.00000000000000	0.00000000000000	0.00000000000000	0.00000000000000	
14.23495400000000	0.80124000000000	699.65548999999999	43.06031600000000	0.24405300000000	0.00000000000000	0.10763100000000	0.00000000000000	0.00000000000000	0.00000000000000	0.00000000000000	0.00000000000000	0.00000000000000	0.00000000000000	20.05703800000000	0.00000000000000	0.00000000000000	0.00000000000000	0.00000000000000	
14.23661500000000	0.12627300000000	700.88539500000002	43.24212700000000	0.24320700000000	0.00000000000000	0.10765800000000	0.00000000000000	0.00000000000000	0.00000000000000	0.00000000000000	0.00000000000000	0.00000000000000	0.00000000000000	20.25709800000000	0.00000000000000	0.00000000000000	0.00000000000000	0.00000000000000	
